TITLE ""
FILE "2Q_t_0388-0400.mp3" MP3
  TRACK 01 AUDIO
    TITLE "2Q_t_0388-0400_01"
    INDEX 01 00:00:00
  TRACK 02 AUDIO
    TITLE "2Q_t_0388-0400_02"
    INDEX 01 00:01:08
  TRACK 03 AUDIO
    TITLE "2Q_t_0388-0400_03"
    INDEX 01 00:01:59
  TRACK 04 AUDIO
    TITLE "2Q_t_0388-0400_04"
    INDEX 01 00:02:62
  TRACK 05 AUDIO
    TITLE "2Q_t_0388-0400_05"
    INDEX 01 00:03:30
  TRACK 06 AUDIO
    TITLE "2Q_t_0388-0400_06"
    INDEX 01 00:04:41
  TRACK 07 AUDIO
    TITLE "2Q_t_0388-0400_07"
    INDEX 01 00:05:15
  TRACK 08 AUDIO
    TITLE "2Q_t_0388-0400_08"
    INDEX 01 00:06:36
  TRACK 09 AUDIO
    TITLE "2Q_t_0388-0400_09"
    INDEX 01 00:07:04
  TRACK 10 AUDIO
    TITLE "2Q_t_0388-0400_10"
    INDEX 01 00:08:20
  TRACK 11 AUDIO
    TITLE "2Q_t_0388-0400_11"
    INDEX 01 00:08:69
  TRACK 12 AUDIO
    TITLE "2Q_t_0388-0400_12"
    INDEX 01 00:10:19
  TRACK 13 AUDIO
    TITLE "2Q_t_0388-0400_13"
    INDEX 01 00:10:62
  TRACK 14 AUDIO
    TITLE "2Q_t_0388-0400_14"
    INDEX 01 00:12:12
  TRACK 15 AUDIO
    TITLE "2Q_t_0388-0400_15"
    INDEX 01 00:12:57
  TRACK 16 AUDIO
    TITLE "2Q_t_0388-0400_16"
    INDEX 01 00:15:04
  TRACK 17 AUDIO
    TITLE "2Q_t_0388-0400_17"
    INDEX 01 00:15:51
  TRACK 18 AUDIO
    TITLE "2Q_t_0388-0400_18"
    INDEX 01 00:16:60
  TRACK 19 AUDIO
    TITLE "2Q_t_0388-0400_19"
    INDEX 01 00:17:36
  TRACK 20 AUDIO
    TITLE "2Q_t_0388-0400_20"
    INDEX 01 00:20:56
  TRACK 21 AUDIO
    TITLE "2Q_t_0388-0400_21"
    INDEX 01 00:21:24
  TRACK 22 AUDIO
    TITLE "2Q_t_0388-0400_22"
    INDEX 01 00:22:53
  TRACK 23 AUDIO
    TITLE "2Q_t_0388-0400_23"
    INDEX 01 00:23:27
  TRACK 24 AUDIO
    TITLE "2Q_t_0388-0400_24"
    INDEX 01 00:27:35
  TRACK 25 AUDIO
    TITLE "2Q_t_0388-0400_25"
    INDEX 01 00:28:05
  TRACK 26 AUDIO
    TITLE "2Q_t_0388-0400_26"
    INDEX 01 00:29:14
  TRACK 27 AUDIO
    TITLE "2Q_t_0388-0400_27"
    INDEX 01 00:29:65
  TRACK 28 AUDIO
    TITLE "2Q_t_0388-0400_28"
    INDEX 01 00:32:24
  TRACK 29 AUDIO
    TITLE "2Q_t_0388-0400_29"
    INDEX 01 00:32:69
  TRACK 30 AUDIO
    TITLE "2Q_t_0388-0400_30"
    INDEX 01 00:33:69
  TRACK 31 AUDIO
    TITLE "2Q_t_0388-0400_31"
    INDEX 01 00:34:48
  TRACK 32 AUDIO
    TITLE "2Q_t_0388-0400_32"
    INDEX 01 00:40:06
  TRACK 33 AUDIO
    TITLE "2Q_t_0388-0400_33"
    INDEX 01 00:40:55
  TRACK 34 AUDIO
    TITLE "2Q_t_0388-0400_34"
    INDEX 01 00:41:58
  TRACK 35 AUDIO
    TITLE "2Q_t_0388-0400_35"
    INDEX 01 00:42:28
  TRACK 36 AUDIO
    TITLE "2Q_t_0388-0400_36"
    INDEX 01 00:43:61
  TRACK 37 AUDIO
    TITLE "2Q_t_0388-0400_37"
    INDEX 01 00:44:31
  TRACK 38 AUDIO
    TITLE "2Q_t_0388-0400_38"
    INDEX 01 00:45:33
  TRACK 39 AUDIO
    TITLE "2Q_t_0388-0400_39"
    INDEX 01 00:46:03
  TRACK 40 AUDIO
    TITLE "2Q_t_0388-0400_40"
    INDEX 01 00:47:22
  TRACK 41 AUDIO
    TITLE "2Q_t_0388-0400_41"
    INDEX 01 00:47:69
  TRACK 42 AUDIO
    TITLE "2Q_t_0388-0400_42"
    INDEX 01 00:49:17
  TRACK 43 AUDIO
    TITLE "2Q_t_0388-0400_43"
    INDEX 01 00:49:62
  TRACK 44 AUDIO
    TITLE "2Q_t_0388-0400_44"
    INDEX 01 00:51:16
  TRACK 45 AUDIO
    TITLE "2Q_t_0388-0400_45"
    INDEX 01 00:51:64
  TRACK 46 AUDIO
    TITLE "2Q_t_0388-0400_46"
    INDEX 01 00:53:12
  TRACK 47 AUDIO
    TITLE "2Q_t_0388-0400_47"
    INDEX 01 00:53:57
  TRACK 48 AUDIO
    TITLE "2Q_t_0388-0400_48"
    INDEX 01 00:55:31
  TRACK 49 AUDIO
    TITLE "2Q_t_0388-0400_49"
    INDEX 01 00:56:05
  TRACK 50 AUDIO
    TITLE "2Q_t_0388-0400_50"
    INDEX 01 00:57:73
  TRACK 51 AUDIO
    TITLE "2Q_t_0388-0400_51"
    INDEX 01 00:58:43
  TRACK 52 AUDIO
    TITLE "2Q_t_0388-0400_52"
    INDEX 01 01:00:01
  TRACK 53 AUDIO
    TITLE "2Q_t_0388-0400_53"
    INDEX 01 01:00:48
  TRACK 54 AUDIO
    TITLE "2Q_t_0388-0400_54"
    INDEX 01 01:02:72
